<svg width="783" height="725" fill="none" xmlns="http://www.w3.org/2000/svg"><path d="M661.136 351.201v112.468c0 1.474 2.422 1.579 2.422 0V351.201c0-1.58-2.422-1.58-2.422 0z" fill="#E8E8E8"/><path d="M663.031 353.201c63.711-.737 127.317-1.579 191.028-2.316 1.474 0 1.579-2.422 0-2.422-63.711.737-127.317 1.579-191.028 2.316-1.474 0-1.474 2.422 0 2.422zM662.715 465.038h46.967c1.475 0 1.58-2.422 0-2.422h-46.967c-1.474.105-1.474 2.422 0 2.422zM709.788 414.174c1.685 16.955 2.948 33.909 3.475 50.969.421 14.743.527 29.275 2.001 43.913a266.79 266.79 0 0 1 1.263 25.906c0 4.844.632 9.793 1.685 14.532 1.264 5.16 2.949 12.11 7.477 15.48 4.107 3.16 9.688 3.054 14.533 1.58 1.474-.421.842-2.738-.632-2.317-8.004 2.422-13.901-.526-16.849-8.108-2.317-6.003-3.686-12.743-3.897-19.272-.105-5.686.106-11.373-.21-17.059-.632-8.32-1.685-16.534-2.317-24.853-.843-11.9-.421-23.905-.843-35.91-.631-15.059-1.79-30.012-3.264-45.071-.211-1.369-2.527-1.369-2.422.21z" fill="#E8E8E8"/><path d="M711.894 417.755c.526-4.739 2.001-8.53 7.055-10.11 3.476-1.053 7.161-.632 10.742-.316 1.474.106 1.474-2.211 0-2.422-4.95-.526-10.426-.948-14.849 1.896-3.896 2.527-4.844 6.423-5.265 10.741-.211 1.79 2.106 1.79 2.317.211z" fill="#E8E8E8"/><path d="M748.33 405.644c-5.476-2.316-14.848-5.686-19.376.316-2.844 3.791-2.317 10.11-2.422 14.638-.316 14.111.737 28.222 1.79 42.228 2.211 28.749 6.108 57.287 8.003 86.036.211 4.107-.316 8.846.632 12.848 2.422 9.161 13.374 5.897 19.587 3.264 1.369-.526.737-2.843-.632-2.316-3.37 1.369-9.583 4.317-13.268 2.422-3.791-2.001-3.686-5.582-3.686-9.162 0-3.37-.211-6.74-.527-10.11-.842-10.952-2.001-21.904-3.054-32.856-2.632-26.642-5.686-53.285-6.423-80.033-.106-5.581-.211-11.057.105-16.639.211-3.159.105-6.845 2.422-9.267 4.107-4.212 11.584-1.053 16.217.843 1.369.632 2.001-1.58.632-2.212z" fill="#E8E8E8"/><path d="M761.494 563.5c-6.213 1.264-5.371-12.216-5.792-15.27-.632-4.422-1.369-8.845-2.106-13.163-1.369-8.214-1.369-16.428-1.791-24.747-.421-10.11-1.79-20.219-2-30.329-.316-11.478.21-22.851-.843-34.225a931.293 931.293 0 0 1-1.58-24.536c-.421-7.688 2.423-21.272 13.059-16.744 1.369.632 2.632-1.474 1.158-2.001-11.057-4.739-16.112 5.897-16.639 15.48-.421 7.477.843 15.375 1.264 22.957.316 5.16.948 10.32.948 15.48.105 12.427-.211 24.958.842 37.385.843 10.741.948 21.588 1.896 32.224.842 9.793 3.475 19.376 4.001 29.275.316 4.949 1.475 11.9 8.109 10.636 1.58-.526.948-2.738-.526-2.422z" fill="#E8E8E8"/><path d="M760.862 404.697c6.634-2.738 9.477 4.739 9.793 9.899.106 1.579.316 4.107-1.263 5.16-.843.526-2.528.105-3.476.526-4.317 1.685-3.053 6.635-3.159 10.531-.316 16.744-.421 33.488-.421 50.231.105 16.744.316 33.488.737 50.232.106 4.212-1.158 10.636 2.422 13.901 2.949 2.632 5.897 4.001 6.213 8.529.316 5.898-4.633 9.583-10.109 9.478-1.474 0-1.474 2.317 0 2.422 5.581.106 11.057-3.264 12.321-8.951.526-2.422.105-4.949-.948-7.161-1.264-2.738-3.159-3.37-5.16-5.371-3.58-3.58-2.422-12.11-2.527-16.743l-.316-16.744a1556.09 1556.09 0 0 1-.316-31.382c0-10.425 0-20.956.105-31.381.105-5.582.105-11.163.211-16.744 0-1.79-.421-4.634.105-6.319 1.053-3.054 2.633-1.685 4.739-2.527 4.633-1.79 3.475-8.53 2.422-12.426-1.474-5.266-6.529-9.478-12.11-7.161-1.264.316-.632 2.633.737 2.001z" fill="#E8E8E8"/><path d="M763.6 465.669h91.09c1.475 0 1.58-2.422 0-2.422H763.6c-1.58.106-1.58 2.422 0 2.422zM781.818 359.52v23.589c0 1.474 2.422 1.579 2.422 0V359.52c-.105-1.58-2.422-1.58-2.422 0z" fill="#E8E8E8"/><path d="M783.397 385.425h51.496c1.474 0 1.579-2.422 0-2.422h-51.496c-1.579.106-1.579 2.422 0 2.422zM782.555 360.678h52.759c1.474 0 1.58-2.422 0-2.422h-52.759c-1.58 0-1.58 2.422 0 2.422zM669.982 361.099v78.138c0 1.475 2.422 1.58 2.422 0v-78.138c0-1.474-2.422-1.474-2.422 0z" fill="#E8E8E8"/><path d="M671.245 362.258h60.341c1.475 0 1.58-2.422 0-2.422h-60.341c-1.579.105-1.579 2.422 0 2.422zM681.565 370.366c-.105-.315.106-.842.422-1.053.421-.316.947-.105 1.263.316.632.948-.737 1.475-1.474.948-1.264-.842-2.422 1.159-1.158 2.001 1.263.842 3.053.632 4.212-.316 1.264-1.158 1.264-2.949.316-4.318-1.053-1.263-2.843-1.684-4.212-.737-1.369.948-1.896 2.738-1.159 4.213.211.631 1.159.737 1.58.421.421-.211.526-.843.21-1.475zM566.886 258.846v15.48c0 1.475 2.422 1.58 2.422 0v-15.48c-.106-1.474-2.422-1.474-2.422 0z" fill="#E8E8E8"/><path d="M568.887 259.267h257.792c1.474 0 1.579-2.422 0-2.422H568.887c-1.475 0-1.475 2.422 0 2.422zM570.571 276.327h254.528c1.475 0 1.58-2.422 0-2.422H570.571c-1.579 0-1.579 2.422 0 2.422zM570.782 161.332v13.69c0 1.474 2.422 1.579 2.422 0v-13.69c-.105-1.475-2.422-1.475-2.422 0z" fill="#E8E8E8"/><path d="M573.309 163.227h250.948c1.474 0 1.579-2.422 0-2.422H573.309c-1.474 0-1.474 2.422 0 2.422zM572.678 178.286h248.841c1.474 0 1.579-2.422 0-2.422H572.678c-1.58 0-1.58 2.422 0 2.422z" fill="#E8E8E8"/><path d="M599.952 160.278c0-4.317 0-8.74.106-13.058l-1.159 1.159c52.233-3.686 104.781-3.159 156.908 1.685l-1.158-1.159c.526 4.318 1.158 8.635 1.685 12.953.21 1.474 2.527 1.474 2.422 0-.527-4.318-1.159-8.635-1.685-12.953-.106-.632-.421-1.158-1.159-1.158-52.127-4.844-104.675-5.371-156.907-1.685a1.17 1.17 0 0 0-1.159 1.158c0 4.318 0 8.741-.105 13.058-.105 1.58 2.211 1.58 2.211 0z" fill="#E8E8E8"/><path d="M647.762 144.483c.737-2.001.316-3.581.632-5.476.947-4.845 5.054-5.161 9.267-5.371l18.639-.632c13.164-.421 26.222-.842 39.385-1.264 12.637-.421 25.379-1.053 38.016-1.158 6.529-.105 13.163.105 19.692 1.158 4.95.843 6.214 3.791 6.74 8.425.421 2.949.632 5.897.843 8.951l1.158-1.158c-9.267.105-18.429-.422-27.591-1.369-1.474-.211-1.474 2.211 0 2.422 9.162.947 18.324 1.474 27.591 1.369.632 0 1.264-.527 1.158-1.159-.316-4.633.106-12.426-2.527-16.533-2.527-3.791-9.056-3.475-13.058-3.896-16.533-1.475-33.488.105-50.021.632-16.639.526-33.172 1.158-49.81 1.684-4.107.106-8.32.316-12.427.422-2.106.105-4.633-.211-6.634.737-4.423 2.211-2.106 8.003-3.475 11.689-.316 1.264 2.001 1.895 2.422.527z" fill="#E8E8E8"/><path d="M711.262 132.056c-.948.316-1.053.843-.316 1.474.105.211.316.527.421.738.527 1.053.948 2.211 1.159 3.369.526 2.212.632 4.423.316 6.74-.211 1.474 2.106 2.106 2.316.632.632-4.318.106-8.53-1.895-12.321-.527-1.053-1.264-2.527-2.633-2.422-1.053 0-1.685.842-1.685 1.79 0 1.474 2.422 1.474 2.317 0zM732.218 129.845c3.159 5.265 3.686 11.268 1.474 17.06-.526 1.474 1.791 2 2.317.631 2.422-6.318 1.79-13.058-1.685-18.85-.842-1.369-2.843-.105-2.106 1.159z" fill="#E8E8E8"/><path d="M703.89 130.161c.948-1.791-1.368-8.004-1.684-10.215a81.881 81.881 0 0 1-.948-10.11c-.105-2.316-.527-2.422 1.579-3.685 1.053-.527 2.738-.632 3.897-.843 3.791-.737 7.687-1.369 11.584-1.579 4.423-.316 16.322-2.212 18.639 2.738 1.158 2.527.737 7.266.632 10.004-.105 3.791-.421 7.582-1.053 11.373-.211 1.474 2.106 2.106 2.317.632.842-5.266 1.263-10.531 1.053-15.902-.106-2.948.105-7.266-2.317-9.477-2.528-2.317-7.161-1.896-10.32-2.001a94.693 94.693 0 0 0-17.271 1.264c-2.843.421-9.372.421-10.952 3.264-1.685 2.843.211 9.899.527 12.848.316 2.948.316 10.53 2.738 12.321 1.369 1.053 2.738.631 3.37-.948.21-.421.21-1.053-.211-1.475-1.369-1.263-2.843-1.158-3.686.527-.631 1.369 1.369 2.633 2.106 1.264z" fill="#E8E8E8"/><path d="M706.734 102.781c-.948-3.897-3.686-7.056-5.16-10.847-.632-1.58-1.159-3.054-1.58-4.739-.105-.526-.21-1.158-.316-1.685-1.158-2.316-.421-3.896 2.001-4.633.948 1.053 2.422-.316 1.896-1.474-3.054-5.898-4.634-12.321-4.213-19.061.211-3.896 0-3.791 3.581-5.476 3.37-1.685 4.633-1.158 7.266 1.58 2.211 2.211 3.58 5.476 4.633 8.319 4.213 11.584 5.898 24.326 6.214 36.541 0 1.475 2.422 1.58 2.422 0a142.045 142.045 0 0 0-4.107-29.696c-1.79-6.845-4.002-15.586-10.531-19.482-4.739-2.738-9.794-1.264-11.163 4.107-2.106 8.003.316 17.165 4.002 24.326.632-.527 1.264-.948 1.896-1.474-3.791-4.107-6.635 1.58-6.319 5.054.632 6.319 4.213 16.323 9.899 19.903.316.211.843.211 1.158 0 .106-.105.316-.21.422-.315.421-.316.632-.738.526-1.369 0-.106-.105-.316-.105-.422-.527-1.263-2.738-.632-2.422.843z" fill="#E8E8E8"/><path d="M720.108 77.612c-.843-3.264-.211-6.423.526-9.688.737-3.054 4.423-11.163 8.636-5.897.842 1.053 2.211-.105 2-1.159 4.002-.947 6.003-.105 5.792 2.633.105.632.106 1.37.106 2.106 0 1.58-.106 3.16-.211 4.74-.316 3.896-.737 7.687-1.369 11.478-1.053 6.529-2.738 12.952-4.739 19.271-.421 1.474 1.79 2.106 2.317.632 2.211-6.95 4.002-14.006 5.055-21.272.842-5.687 2.211-12.427 1.158-18.219-.527-3.053-2.738-6.634-6.424-6.318-2.948.21-4.423 2.843-4.001 5.581.631-.42 1.369-.737 2-1.158-2.632-3.475-7.582-2.527-10.109.632-3.37 4.212-4.212 12.215-3.054 17.165.316 1.58 2.633.948 2.317-.527zM634.493 146.904c1.58 1.264 1.79 4.529 2.106 6.424.422 2.422.632 4.844.632 7.372 0 1.474 2.422 1.579 2.422 0 0-3.054-.316-6.108-.948-9.057-.421-2.106-.842-4.949-2.527-6.423-1.158-.948-2.843.737-1.685 1.684zM662.4 145.43c2.106 4.95 2.738 10.215 1.79 15.48-.316 1.475 2.001 2.107 2.317.632 1.053-5.686.421-11.373-1.791-16.744-.526-1.369-2.843-.737-2.316.632zM0 2.107v315.606c0 1.474 2.422 1.579 2.422 0V2.107C2.422.527 0 .527 0 2.107z" fill="#E8E8E8"/><path d="M2.738 2.528h302.337c1.474 0 1.58-2.422 0-2.422H2.738c-1.474.106-1.474 2.422 0 2.422z" fill="#E8E8E8"/><path d="M303.811 2.844c.316 82.561.422 165.122.211 247.683-.105 23.273-.105 46.44-.211 69.713 0 1.475 2.317 1.475 2.423 0 .315-82.455.421-164.911.21-247.367-.105-23.378-.105-46.65-.21-70.029 0-1.58-2.423-1.58-2.423 0z" fill="#E8E8E8"/><path d="M2 320.451h303.812c1.475 0 1.58-2.422 0-2.422H2.001c-1.58 0-1.58 2.422 0 2.422zM7.793 13.901v288.437c0 1.474 2.422 1.58 2.422 0V13.901c-.105-1.58-2.422-1.58-2.422 0z" fill="#E8E8E8"/><path d="M10.425 15.797h281.276c1.474 0 1.58-2.422 0-2.422H10.426c-1.58 0-1.58 2.422 0 2.422zM9.688 305.602h271.166c1.475 0 1.58-2.422 0-2.422H9.688c-1.58 0-1.58 2.422 0 2.422z" fill="#E8E8E8"/><path d="M290.437 16.745v285.593c0 1.474 2.422 1.58 2.422 0V16.745c-.105-1.58-2.422-1.58-2.422 0zM188.605 16.534c-43.386 54.339-86.773 108.572-130.054 162.91-.948 1.159.737 2.844 1.685 1.685 43.386-54.338 86.773-108.571 130.054-162.91.948-1.264-.737-2.949-1.685-1.685zM239.363 19.588C183.445 86.563 127.632 153.539 71.714 220.514c-15.901 19.061-31.908 38.227-47.81 57.287-.947 1.159.738 2.844 1.686 1.685C81.508 212.511 137.32 145.535 193.239 78.56c15.901-19.06 31.908-38.227 47.809-57.287.948-1.159-.737-2.843-1.685-1.685zM286.436 121.841c-25.801 34.541-51.285 69.293-76.453 104.36-.843 1.264 1.158 2.422 2 1.158 25.064-35.067 50.548-69.819 76.454-104.359.947-1.159-1.159-2.317-2.001-1.159zM705.769 633.108c50.758-18.429 101.306 10.11 149.326 23.905 49.705 14.322 101.832 11.162 152.165 1.369 29.7-5.792 58.87-13.69 87.94-21.693 2-.527 1.15-3.581-.85-3.054-51.28 14.111-103.409 28.327-156.799 29.907-26.854.842-53.812-1.79-79.718-9.057-24.536-6.845-48.02-17.165-72.662-23.904-26.116-7.056-54.339-9.899-80.244-.527-1.896.632-1.158 3.686.842 3.054z" fill="#E8E8E8"/><path d="M77.708 259.208c-2.422-.106-6.319.105-10.742 1.474-1.58.526-10.846 3.475-10.741 7.582 0 1.79 1.896 3.054 4.107 4.528 4.318 2.949 8.53 3.791 14.848 5.055a456.69 456.69 0 0 0 13.374 2.527c2.949 3.159 7.793 7.477 14.849 10.531 2.106.948 11.689 4.949 24.115 3.475a41.515 41.515 0 0 0 7.687-1.474 180.026 180.026 0 0 0-7.687 23.694c-1.895 7.582-5.16 21.167-5.16 38.753 0 26.011 7.266 45.809 10.741 54.444 3.581 8.635 7.793 18.745 16.955 29.697 6.002 7.16 19.166 23.062 41.07 28.222 2.843.632 9.793 2.106 23.167 1.053 10.11-.842 32.961-3.791 64.238-20.64 15.901-8.53 37.489-20.219 57.076-43.808 15.48-18.639 38.648-55.497 26.748-70.029-2.316-2.844-5.37-4.002-8.214-5.055-10.952-4.107-24.431-1.159-48.757 13.584-13.269 8.004-14.848 10.426-52.443 37.806-8.53 6.213-20.851 14.953-38.542 18.113-11.058 2-16.218.316-18.535-.527-12.321-4.739-17.165-17.902-20.534-27.169-6.53-17.692-4.634-33.383-3.581-40.754 1.474-11.373 4.739-20.219 9.267-32.224 5.581-15.059 7.161-14.533 10.32-25.169 3.265-10.846 6.74-23.483 2.106-36.752-1.579-4.423-4.317-12.11-11.794-15.059-5.476-2.211-10.952-.842-13.374 0-2.001-7.371-3.686-15.48-5.16-24.22-2.212-13.48-2.949-25.906-3.054-36.753-2.527-1.579-6.634-3.58-11.794-4.528-6.74-1.264-12.321-.316-18.008 1.053-15.164 3.475-25.168 5.792-38.016 12.637-6.002 3.265-14.111 8.214-22.64 15.586.526 12.215 1.579 25.168 3.053 38.753 1.369 12.321 3.054 24.326 5.055 35.594z" fill="#fff"/><path d="M174.275 240.884c-4.95 1.474-10.321-1.685-11.584-6.74-1.475-6.002 4.212-11.478 9.688-12.531 11.373-2.212 18.639 9.477 19.482 19.271.737 9.162-.632 19.377-2.527 28.328-2.107 9.899-6.74 18.85-10.637 28.011-6.95 16.428-9.793 35.068-8.845 52.865.737 15.374 5.37 31.381 16.743 42.333 11.163 10.636 27.591 16.112 42.439 10.426 1.896-.738 1.053-3.792-.842-3.054-19.061 7.371-39.596-4.739-48.336-21.904-10.004-19.587-8.214-44.967-2.949-65.607 2.843-11.057 8.319-20.956 12.321-31.487 3.581-9.477 4.844-19.587 5.581-29.591.632-8.53.632-18.007-4.844-25.063-4.317-5.476-11.373-9.056-18.323-7.687-6.845 1.369-13.164 7.792-12.11 15.058.947 7.372 8.74 12.216 15.796 10.215 1.79-.421.947-3.475-1.053-2.843z" fill="#161616"/><path d="M196.6 400.214c30.644 3.475 54.549-18.955 77.611-35.489 12.426-8.951 25.274-17.797 38.753-25.063 6.845-3.686 14.111-6.845 21.693-8.53 6.635-1.474 20.43-3.896 24.853 3.16 1.053 1.684 3.791.105 2.738-1.58-6.529-10.32-25.169-6.003-34.541-2.949-15.269 5.055-29.065 14.322-42.333 23.273-13.69 9.267-26.433 19.693-40.122 28.96-14.428 9.688-30.856 17.165-48.652 15.059-2.107-.316-2.001 2.843 0 3.159zM82.025 182.86c-2 31.065 3.897 62.026 17.06 90.248.843 1.79 3.58.211 2.738-1.58A182.435 182.435 0 0 1 85.29 182.86c0-2.001-3.16-2.001-3.265 0z" fill="#161616"/><path d="M101.086 275.53a232.658 232.658 0 0 0 76.348-21.799c1.79-.842.21-3.58-1.58-2.738-23.483 11.374-48.757 18.64-74.768 21.378-2 .21-2 3.37 0 3.159z" fill="#161616"/><path d="M173.116 244.149c1.053 2.843 2.211 5.686 3.265 8.529.737 1.896 3.791 1.053 3.054-.842-1.054-2.843-2.212-5.687-3.265-8.53-.737-1.79-3.791-1.053-3.054.843zM158.373 161.166c1.79 19.588 1.58 40.86 9.162 59.183.737 1.896 3.791 1.053 3.054-.842-7.477-18.113-7.267-39.069-8.951-58.341-.316-2-3.476-2-3.265 0z" fill="#161616"/><path d="M86.553 183.492c9.689-7.056 20.957-11.058 32.435-14.322 12.742-3.581 25.695-7.477 39.069-6.95 2.001.105 2.001-3.054 0-3.16-13.584-.421-26.853 3.475-39.911 7.056-11.795 3.264-23.273 7.371-33.172 14.638-1.685 1.263-.105 4.001 1.58 2.738zM121.41 244.043c-7.898-3.896-12.215-11.794-13.163-20.324-1.053-9.583 3.159-16.217 10.741-21.588 7.266-5.265 15.796-9.162 24.537-4.739 8.635 4.318 12.531 13.479 14.848 22.325.527 2.001 3.581 1.159 3.054-.842-2.633-10.215-7.582-20.535-17.797-24.958-9.899-4.318-19.482.316-27.485 6.318-8.214 6.108-12.216 13.796-10.847 24.116 1.159 9.372 6.108 18.113 14.638 22.325 1.685 1.053 3.264-1.685 1.474-2.633z" fill="#161616"/><path d="M117.303 244.254c5.16 6.529 14.322 6.318 21.799 5.055 8.635-1.475 17.481-4.95 21.798-13.059.948-1.79-1.79-3.369-2.738-1.579-3.685 6.95-11.057 9.899-18.428 11.373-6.845 1.369-15.481 2.106-20.219-4.002-1.264-1.685-3.475.632-2.212 2.212zM158.373 218.664c.843 3.054 1.264 6.213 1.369 9.372.105 2.001 3.265 2.001 3.159 0-.105-3.475-.632-6.844-1.474-10.214-.527-2.001-3.58-1.159-3.054.842zM67.493 186.335c.948 21.167 3.37 42.123 7.582 62.868 1.053 5.266 2.211 10.636 3.58 15.902.843 3.37 1.475 7.055 4.213 9.372 4.844 4.318 12.32 2.422 17.797.632 1.895-.632 1.053-3.686-.843-3.054-3.475 1.158-7.16 2.317-10.741 1.685-5.581-.843-6.424-5.792-7.582-10.531-2.001-8.214-3.686-16.533-5.16-24.852-3.054-17.165-4.844-34.646-5.582-52.022-.105-2.001-3.264-2.001-3.264 0z" fill="#161616"/><path d="M68.967 186.967c5.37-.211 10.53-1.053 15.586-2.738 1.895-.632 1.053-3.686-.843-3.054-4.844 1.579-9.688 2.527-14.848 2.632-1.896.106-1.896 3.265.105 3.16z" fill="#161616"/><path d="M70.02 184.439c11.9-9.372 26.117-15.059 40.438-19.482 6.845-2.106 13.795-4.212 20.851-5.897 8.425-2.106 17.797-2.948 24.958 2.949 1.58 1.263 3.791-.948 2.211-2.212-13.058-10.741-31.276-3.159-45.492 1.053-16.112 4.845-31.908 10.847-45.282 21.378-1.58 1.263.737 3.475 2.316 2.211z" fill="#161616"/><path d="M98.98 167.695c-5.266-7.476-10.004-15.374-12.321-24.326-2.422-9.267-2.738-19.376-3.686-28.854-.21-2.001-3.37-2.001-3.16 0 1.054 9.794 1.264 20.114 3.792 29.697 2.422 9.162 7.266 17.376 12.637 25.063 1.158 1.685 3.896.105 2.738-1.58z" fill="#161616"/><path d="M81.078 112.83c.526-.316.21-.316 0-.842-.211-.527-.316-1.264-.422-1.79-.105-.737 0-2.633 1.159-2.528.842 0 .842 1.685.842 2.317 0 .421.106.948-.105 1.369-.316.632-.421.211-.21.737-.738-1.895-3.792-1.053-3.055.843 1.053 2.948 4.95 2.527 6.108-.106 1.053-2.422.527-7.161-2.422-8.003-3.264-1.053-5.686 2.317-5.581 5.265.105 2.528 1.58 7.583 5.055 5.687 2-1.158.42-3.896-1.37-2.949zM124.675 115.358c4.949 13.163 6.529 27.064 4.212 40.964-.316 2.001 2.738 2.844 3.054.843 2.317-14.533.948-28.96-4.212-42.65-.737-1.79-3.791-1.053-3.054.843z" fill="#161616"/><path d="M124.78 112.093c-2.211-.526-1.58-3.686.632-3.159 1.053.211 1.58 1.474 1.79 2.422 0 .316-.21 2.843-1.053 2.106-1.58-1.263-3.791.948-2.211 2.212 2.316 2.001 5.581.632 6.318-2.317.737-2.738-.632-6.003-3.159-7.266-2.422-1.159-5.582.105-6.529 2.632-1.053 2.738.737 5.687 3.475 6.319 1.895.526 2.738-2.528.737-2.949zM77.813 257.944c-5.792-.632-11.584.421-16.533 3.475-2.949 1.79-7.793 5.476-6.74 9.583 1.159 4.633 9.794 5.476 13.374 6.424 7.161 1.895 14.427 2.948 21.799 3.58 2 .211 2-3.054 0-3.159-9.057-.737-18.008-2.317-26.643-5.055-2.633-.842-6.634-1.158-3.791-5.897.842-1.474 3.37-2.738 4.95-3.581 4.212-2.211 8.845-2.738 13.584-2.211 2 .211 2-2.949 0-3.159z" fill="#161616"/><path d="M88.554 280.69c6.319 4.423 13.269 10.952 20.746 13.269 7.793 2.317 17.376 1.474 25.379.842 2.001-.105 2.001-3.264 0-3.159-7.688.527-17.06 1.474-24.537-.737-7.161-2.106-14.006-8.741-20.008-12.953-1.58-1.158-3.16 1.58-1.58 2.738z" fill="#161616"/><path d="M132.573 293.748c-17.165 44.651-15.27 100.569 12.321 140.796 12.215 17.902 30.96 32.119 53.075 34.646 23.062 2.633 48.02-4.739 68.976-13.9 23.905-10.426 45.387-25.906 63.921-44.229 1.475-1.475-.737-3.686-2.211-2.212-31.066 30.645-72.662 54.76-116.996 57.393-52.128 3.159-79.929-48.863-85.615-93.935-3.265-26.326.105-53.074 9.583-77.822.737-1.895-2.317-2.632-3.054-.737z" fill="#161616"/><path d="M115.513 239.936c-6.318-6.424-8.951-15.901-6.634-24.536 3.264-12.111 16.006-21.588 29.591-19.377 15.796 2.527 21.167 18.955 21.799 27.275.21 2.738.737 10.425-4.318 15.796-1.369 1.474-2.633 2.106-4.844 3.37-4.528 2.527-10.215 5.686-17.797 5.37-10.32-.526-16.955-7.055-17.797-7.898z" fill="#EC615B"/><path opacity=".16" d="M146.579 154.743c2.843 1.685 5.792 3.37 8.635 5.16-11.373.947-26.643 3.37-43.387 9.899-10.952 4.212-20.008 9.161-27.274 13.795-.632 9.478-.632 20.535.842 32.75 2.528 22.01 8.53 39.912 14.217 52.865 2.738 2.527 6.107 5.265 10.214 7.476 16.428 8.952 33.488 5.898 39.912 4.318-3.159 8.214-7.582 20.746-11.795 36.331-9.267 33.804-10.425 55.392-12.636 55.286-2.212-.105-3.897-21.377-.843-43.07 2.106-15.27 6.213-27.485 9.478-35.91-5.055.632-9.267.316-12.216 0-10.004-1.158-17.27-5.055-22.536-7.898-4.212-2.317-7.582-4.634-9.898-6.319-4.318-.315-10.11-.947-16.955-2-12.11-1.896-14.217-3.265-14.954-5.16-1.369-3.37 1.58-7.898 4.318-10.215 4.212-3.581 10.636-4.107 16.533-1.58-2.527-11.373-4.844-24.221-6.318-38.332a341.509 341.509 0 0 1-2.001-39.911c9.372-5.897 21.799-12.637 37.068-18.113 15.164-5.265 28.749-8.003 39.596-9.372z" fill="#606060"/><path opacity=".11" d="M163.112 232.67c1.79-3.054 10.531-2.738 16.112 1.474 6.634 4.95 8.53 15.27 5.687 17.587-1.685 1.263-4.845.21-6.635-.948-3.686-2.422-3.791-6.74-3.791-7.161-.632 0-7.477-.421-10.425-5.687-.527-.947-2.001-3.58-.948-5.265z" fill="#606060"/><path opacity=".09" d="M84.132 184.755c.631 8.846 2.527 22.22 8.845 37.174 2.528 6.002 5.582 13.268 10.742 19.587 15.48 18.639 42.333 19.587 51.39 19.587-14.849 3.791-29.697 7.477-44.545 11.268 20.745.948 45.703 5.055 53.39 21.061 7.793 16.428-9.898 30.329-14.216 65.08-.316 2.738-7.056 63.079 25.484 85.194 21.588 14.638 50.653 5.476 70.977-.948 56.55-17.902 90.986-60.552 107.73-85.72-1.475 9.056-4.844 23.273-13.69 38.227-13.058 22.009-30.539 33.171-47.494 44.018-24.536 15.691-45.493 21.693-50.442 23.062-16.849 4.528-30.328 8.214-46.019 5.371-34.33-6.213-53.602-38.543-57.814-45.493-24.115-40.333-14.638-86.668-9.794-110.151 1.685-8.004 3.476-14.533 4.845-19.061-4.318.843-11.795 1.685-20.535-.526-12.427-3.054-20.325-10.321-23.484-13.69-21.061-.527-32.013-2.949-32.75-7.372-.527-3.054 3.685-6.95 12.742-11.794 2.632-.316 5.265-.632 7.793-.948-2.738-24.115-5.582-48.336-8.32-72.451 5.055-.527 10.11-.948 15.165-1.475z" fill="#606060"/><path d="M304.013 546.802c-2.001 17.165-3.791 31.065-5.055 39.49-17.1 38.037 184.449 59.104 256.529 25.59 8.951-44.124 16.112-96.778 17.481-156.382 1.053-45.387-1.58-86.562-5.792-122.788-9.794-6.424-24.958-15.059-44.966-20.956-20.325-6.003-36.331-6.529-56.34-7.477-14.953-.737-34.541-1.58-59.077 2.738-14.848 2.633-36.647 8.109-61.184 20.43-12.321 24.326-19.166 44.966-22.957 58.55-13.163 47.494-9.056 76.453-18.639 160.805z" fill="#EC615B"/><path opacity=".16" d="M490.196 305.859c2.212 5.37 5.371 14.111 7.793 25.168 8.951 40.965-3.475 62.658-8.951 110.783-6.003 52.338 6.424 55.392-2.949 91.618-8.003 31.065-51.493 80.09-63.077 94.412 84.271 0 94.805-2.809 132.58-14.8a1096.134 1096.134 0 0 0 4.739-27.485c2.422-14.638 6.74-41.386 9.583-68.871 3.58-34.857 3.58-61.816 3.58-82.561 0-27.591-1.263-61.816-5.37-101.2-4.318-2.738-10.321-6.214-17.692-9.899-7.898-3.897-19.377-9.478-35.067-13.269-6.424-1.58-14.849-3.265-25.169-3.896z" fill="#606060"/><path opacity=".13" d="M567.07 333.976a1236.96 1236.96 0 0 0-13.163 66.238c-11.373 66.659-9.162 87.194-20.114 118.681-7.687 22.115-40.635 77.213-74.966 109.647 48.456 0 68.822-10.534 95.712-16.661 8.635-39.279 12.953-73.293 15.164-99.62 4.212-49.073 2.738-87.721 1.685-116.049-1.053-25.168-2.738-46.44-4.318-62.236z" fill="#606060"/><path d="M542.534 329.131c-2.211 1.264-4.949 4.423-10.32 10.636-3.475 4.002-5.16 6.003-6.529 8.004-3.37 5.055-4.844 10.109-6.529 21.904-1.685 11.583-2.528 17.481-2.738 25.063-.421 18.218 2.317 34.541 6.002 52.864 7.056 34.751 10.215 39.385 14.217 62.553 3.37 19.587 4.528 35.699 4.949 45.914-3.686 4.317-8.951 10.846-14.743 19.271-10.952 16.007-16.533 28.433-20.113 35.804-6.319 12.742-17.166 30.434-36.542 50.758-2.738.422-7.056.737-12.005-.526-8.319-2.212-9.478-6.845-18.008-9.057-3.054-.842-1.685.106-15.269-.526-9.583-.421-12.426-1.053-15.27 1.053-2.632 1.895-4.739 5.687-3.791 9.056 1.159 4.002 6.424 6.951 12.532 5.898-8.425 2.106-14.322 5.476-18.008 8.003-4.528 3.159-13.268 9.162-12.005 14.954.737 3.369 4.844 6.002 5.476 6.423 2.106 1.369 4.212 1.896 5.476 2.106.105.632 1.053 4.529 4.95 6.951 4.212 2.632 8.635 1.263 9.267 1.053.947 1.895 2.738 4.844 6.002 6.95 5.897 3.686 14.217 3.265 21.272-1.053-.105 2.106.211 5.055 2.212 6.95 2.948 2.844 8.214 1.896 15.269 0 18.85-4.949 28.328-7.477 33.804-13.9 2.317-2.738 6.95-9.057 8.214-19.798 17.797-13.058 31.487-25.063 40.859-33.698 27.169-24.958 49.494-46.02 63.711-79.086 7.266-16.955 9.688-30.539 10.32-35.278 2.001-13.058 1.685-24.01 0-42.228-1.79-19.271-4.739-40.965-11.478-75.295-.843-4.107-6.319-31.697-18.535-64.132-3.264-8.741-8.108-20.43-19.587-26.222-1.579-.421-14.111-6.529-23.062-1.369z" fill="#fff"/><path d="M541.586 327.868c-23.273 16.638-27.906 49.705-26.958 76.242 1.158 33.172 11.478 64.87 18.639 96.988 4.212 18.85 7.266 37.911 6.845 57.287 0 2.001 3.159 2.001 3.159 0 .948-39.911-12.953-77.611-20.745-116.259-4.002-20.113-6.424-40.859-3.791-61.394 2.316-18.534 8.635-38.753 24.431-50.126 1.58-1.159 0-3.897-1.58-2.738z" fill="#161616"/><path d="M551.485 551.435c-20.114 8.425-29.802 29.591-40.122 47.388-12.953 22.431-26.432 44.545-44.545 63.29-1.369 1.474.843 3.686 2.212 2.212 16.533-17.06 29.38-37.069 41.28-57.604 10.847-18.534 20.746-43.386 41.912-52.337 2.001-.737 1.159-3.791-.737-2.949z" fill="#161616"/><path d="M541.165 332.185c13.269-8.845 27.907 1.791 34.962 13.269 7.056 11.373 11.795 24.537 16.007 37.174 8.846 26.642 13.584 54.443 16.954 82.245 3.265 27.169 8.004 56.339 2.949 83.508-5.055 26.959-22.746 49.6-40.122 70.029-19.798 23.168-42.334 43.703-67.081 61.395-1.685 1.158-.105 3.896 1.58 2.738 23.483-16.744 45.071-36.121 64.132-57.709 18.218-20.745 37.595-44.229 43.808-71.819 6.529-29.17 1.263-60.763-2.212-90.038-3.58-29.591-8.951-59.288-18.955-87.51-4.844-13.585-10.215-29.17-20.324-39.807-8.425-8.845-22.22-13.479-33.172-6.213-1.79 1.159-.211 3.897 1.474 2.738zM417.324 665.904c-2.633-.526-7.688-1.053-9.162-3.475 0-2.422.105-4.739.105-7.161.843-.527 1.685-.842 2.633-1.053 1.369-.421 2.843-.527 4.318-.632 6.529-.737 14.848-2.317 21.166-.211 5.371 1.791 10.11 5.371 15.375 7.372 5.476 2.001 11.163 3.265 16.955 3.896 2 .211 2-2.948 0-3.159-5.266-.632-10.321-1.685-15.27-3.475-5.055-1.79-9.372-4.634-14.216-6.845-7.583-3.475-17.481-1.58-25.38-.632-4.528.527-10.32 2.212-10.741 7.688-.526 7.266 7.582 9.793 13.164 10.846 2.211.211 3.054-2.843 1.053-3.159z" fill="#161616"/><path d="M431.961 667.168c-7.161-2.633-14.532-1.369-21.482 1.474-6.108 2.422-13.164 5.16-17.587 10.11-2.738 2.948-7.898 10.636-6.634 15.059 1.369 4.633 8.53 7.16 12.847 6.318 2.001-.421 1.159-3.475-.842-3.054-6.318 1.264-9.583-4.107-7.372-8.951.632-1.474 1.369-2.843 2.107-4.212 2.632-4.213 6.423-6.529 10.741-8.636 8.53-4.212 17.797-8.424 27.38-4.949 1.895.632 2.738-2.422.842-3.159z" fill="#161616"/><path d="M436.595 677.277c-12.005 1.791-31.276 3.897-37.7 16.112-5.371 10.215 6.845 19.482 16.112 14.638 1.79-.948.211-3.686-1.58-2.738-5.897 3.054-14.216-1.685-12.426-8.74 1.158-4.845 6.529-7.793 10.741-9.794 8.004-3.791 17.06-5.16 25.695-6.529 2.001-.211 1.159-3.265-.842-2.949zM507.361 678.12c-6.423 2.738-8.635 8.74-10.53 15.059-1.685 5.792-3.791 10.53-9.162 13.795-4.423 2.633-9.583 4.002-14.427 5.687-5.16 1.79-10.32 3.685-15.48 5.475-2.317.843-4.739 1.896-7.161 2.528-1.264.421-2.528.632-3.791.737-4.002-1.58-5.16-4.002-3.265-7.056 2.106-4.212 7.582-7.792 11.268-10.425a56.903 56.903 0 0 1 13.058-6.74c1.896-.632 1.053-3.685-.842-3.054-5.476 1.896-10.531 4.634-15.165 8.004-3.896 2.843-8.635 6.213-11.057 10.531-1.579 2.843-1.895 6.634.211 9.267 2.632 3.264 6.845 2.738 10.425 1.684 6.95-2 13.795-4.949 20.746-7.371 5.686-2.001 11.794-3.686 17.059-6.74 4.002-2.316 6.951-5.476 8.741-9.793 2.633-6.319 2.843-15.48 10.215-18.64 1.895-.632 1.053-3.685-.843-2.948z" fill="#161616"/><path d="M448.811 690.23c-8.109.948-16.639 1.896-24.326 4.634-4.845 1.685-12.848 6.107-13.374 12.005-.632 6.213 8.108 9.161 12.952 9.899 7.582 1.158 15.481-1.264 21.694-5.582 1.685-1.158.105-3.896-1.58-2.738-4.633 3.159-9.794 5.16-15.48 5.371-5.687.211-19.377-3.896-11.268-11.163 7.898-7.161 21.272-8.108 31.382-9.372 2-.105 2-3.265 0-3.054z" fill="#161616"/><path opacity=".09" d="M551.275 329.237c-7.793 5.581 8.108 36.647 19.06 67.186 11.479 31.697 27.591 76.348 21.167 123.736-6.74 49.705-36.015 85.72-53.707 107.413-18.113 22.22-36.436 37.806-50.231 48.02-61.71 15.059-74.663 24.432-74.242 30.434.211 2.633 3.159 6.108 6.318 7.793 8.214 4.423 18.324-1.264 19.798-2.106 0 2.527.421 8.635 4.213 10.636 2.738 1.369 5.791 0 9.161-1.369 17.481-7.161 19.482-3.581 31.066-10.636 4.317-2.633 7.477-4.634 10.636-8.53 5.476-6.74 6.74-14.322 7.056-18.429 10.214-7.371 22.641-16.954 36.015-28.959 19.797-17.692 40.438-36.331 57.919-65.712 7.687-12.848 14.321-24.221 17.691-40.965 2.949-15.059 1.58-25.695-.737-46.651-6.845-64.342-4.423-59.288-6.318-70.029-3.897-21.377-5.371-18.534-17.692-62.868-.105-.316-2.949-10.742-9.899-22.642-4.212-7.16-6.95-10.004-9.899-12.005-4.633-3.475-13.584-6.95-17.375-4.317z" fill="#606060"/><path opacity=".1" d="M612.142 501.414c-2.317-.21-4.002 12.321-10.32 31.698-10.952 33.487-24.747 56.866-39.28 76.558-14.532 19.587-34.119 44.229-59.288 71.082 32.119-24.01 55.497-47.072 71.083-64.132 25.273-27.59 31.592-40.859 35.172-51.074 10.742-31.171 6.319-63.816 2.633-64.132z" fill="#606060"/><path opacity=".11" d="M444.809 719.084c-.527-1.79 7.055-5.37 22.22-12.742 12.847-6.213 23.273-11.478 30.433-15.059-.842 5.371-2.948 12.216-8.529 15.691-1.58.948-2.633 1.264-4.95 2.001-13.795 4.317-15.796 8.108-25.59 10.109-5.265 1.159-13.163 1.685-13.584 0z" fill="#606060"/><path opacity=".1" d="M414.902 703.709c5.581.422 13.795.527 23.588-.947 16.639-2.528 29.17-8.636 29.486-7.898.211.526-5.054 2.632-13.479 7.582-9.899 5.792-9.899 7.266-15.375 9.477-2.632 1.053-15.901 6.529-21.588.632-2.422-2.527-2.738-6.424-2.632-8.846z" fill="#606060"/><path d="M278.95 149.267c-1.053 4.844-1.264 9.793-1.053 19.481.21 8.846.842 28.223 9.056 51.917 4.423 12.847 10.215 29.591 25.063 46.862 0 0 21.062 24.326 52.233 34.119 8.635 2.738 15.48 3.475 22.641 2.001 8.214-1.579 14.111-5.581 17.375-8.214 1.791 2.843 4.318 7.477 5.582 13.69 2.001 9.583-.843 13.795 2.422 21.167.737 1.685 3.58 7.687 10.109 10.952 6.635 3.264 13.164 1.685 18.85.316 4.213-1.053 13.585-3.897 20.956-12.321 2.528-2.949 6.529-7.477 6.635-13.69 0-4.107-1.685-7.161-2.422-8.53-1.79-3.265-4.213-12.216-9.057-30.118-3.264-12.005-2.843-21.588-2.106-40.649.421-9.688 1.474-22.535 4.528-37.594 2.107 1.158 6.108 2.843 10.847 2.001 8.319-1.475 12.426-9.794 14.322-13.69.526-1.053 9.372-19.903-1.369-33.172-1.053-1.264-9.583-11.479-19.166-8.53-6.95 2.106-9.688 9.688-10.11 10.952-2.211-2.633-4.422-5.687-6.634-9.267-5.371-8.951-7.898-17.481-9.056-23.905-21.272.948-38.016-1.474-49.495-3.791-23.694-4.844-30.96-10.952-51.811-11.162-12.742-.211-27.906-.316-40.649 9.898-13.268 10.847-16.743 26.854-17.691 31.277z" fill="#fff"/><path d="M276.633 158.955c-1.896 41.07 9.162 83.614 38.543 113.626 12.847 13.164 28.643 23.589 46.229 29.276 9.057 2.949 19.166 5.371 28.539 2.633 9.688-2.949 18.744-9.478 27.064-15.27 18.85-13.163 35.593-30.75 40.227-53.917.421-2.001-2.633-2.844-3.054-.843-4.107 20.43-18.007 36.542-34.33 48.863-7.688 5.792-16.007 11.373-24.642 15.691-10.109 5.054-20.114 3.791-30.644.631-35.384-10.636-62.553-40.016-75.19-74.136-7.793-21.167-10.53-43.913-9.477-66.449 0-2.106-3.16-2.106-3.265-.105z" fill="#161616"/><path d="M404.266 297.539c3.369 9.162 5.581 18.534 6.739 28.328.211 2.001 3.37 2.001 3.159 0-1.158-10.004-3.369-19.693-6.845-29.065-.737-2.001-3.791-1.158-3.053.737z" fill="#161616"/><path d="M453.971 238.146a140.702 140.702 0 0 0 1.895 37.595 147.963 147.963 0 0 0 5.055 18.955c2.317 6.74 5.792 13.585 5.37 20.851-.737 12.005-11.689 20.745-22.325 24.115-11.478 3.686-31.802 1.685-30.328-14.848.21-2.001-2.949-2.001-3.159 0-1.053 12.216 10.53 19.587 21.482 19.903 12.005.211 24.853-5.581 32.224-15.164 9.478-12.532 3.16-25.169-1.053-38.437-5.581-17.06-7.477-34.962-6.002-52.865.105-2.106-3.054-2.106-3.159-.105z" fill="#161616"/><path d="M407.846 297.118c14.848-7.793 27.274-19.271 36.015-33.488 1.053-1.685-1.685-3.369-2.738-1.579-8.53 13.9-20.535 24.852-34.962 32.434-1.685.948-.105 3.581 1.685 2.633z" fill="#161616"/><path d="M408.056 299.014c9.162-4.529 16.744-11.163 23.905-18.429 6.635-6.74 12.742-13.901 16.428-22.746.737-1.896-2.317-2.738-3.054-.843-3.685 8.846-10.215 15.901-16.849 22.641-6.529 6.634-13.585 12.532-22.009 16.639-1.896.842-.316 3.58 1.579 2.738z" fill="#161616"/><path d="M409.004 300.909c18.218-10.109 32.751-25.484 41.386-44.44.843-1.79-1.895-3.475-2.738-1.579-8.424 18.429-22.536 33.488-40.227 43.281-1.791.948-.106 3.686 1.579 2.738zM338.027 172.329c.211 18.85 1.685 37.595 4.213 56.234.105.948 1.579 1.474 2.316.948 6.319-4.634 11.9-9.899 17.06-15.796 1.369-1.58-.948-3.791-2.211-2.212-4.95 5.687-10.32 10.847-16.428 15.375.737.316 1.579.632 2.317.948a442.336 442.336 0 0 1-4.107-55.392c0-2.211-3.16-2.211-3.16-.105zM313.807 196.76c-2.528-1.263-4.529-3.159-5.687-5.792-.948-2-2.738-9.583 1.896-8.319 2.632.737 4.738 4.844 5.476 7.161.421 1.264.842 2.843.526 4.212.105 1.475-.632 2.528-2.211 3.054-.738-.526-1.264-1.158-1.791-1.895-1.263-1.58-3.475.632-2.211 2.211 3.264 4.212 8.319 3.581 9.267-2.001.948-5.686-2.001-11.689-6.529-14.953-4.739-3.37-8.425-.422-8.635 4.949-.211 5.897 3.264 11.268 8.424 13.901 1.685 1.158 3.265-1.58 1.475-2.528z" fill="#161616"/><path d="M306.224 184.018c1.159 5.476 3.792 10.32 7.688 14.322 1.158 1.264 2.948-.105 2.633-1.58-.948-5.054-5.898-8.951-5.476-14.216-.948.421-1.791.737-2.738 1.158 3.054 3.581 4.844 7.582 5.686 12.216a24.132 24.132 0 0 0 1.474-2.001c-3.264 0-5.16-3.054-6.634-5.476-1.053-1.685-3.791-.105-2.738 1.58 2.106 3.475 4.844 7.055 9.372 7.055 1.159 0 1.685-1.053 1.475-2.001-.843-5.16-3.159-9.688-6.424-13.584-.948-1.159-2.633-.106-2.738 1.158-.421 5.792 4.634 9.583 5.581 15.059.843-.526 1.791-1.053 2.633-1.58-3.58-3.685-5.792-8.003-6.95-12.952-.211-2.001-3.265-1.159-2.844.842zM391.102 187.599c-2.527-1.264-4.528-3.16-5.687-5.792-.947-2.001-2.737-9.583 1.896-8.32 2.633.738 4.739 4.845 5.476 7.161.421 1.264.842 2.844.527 4.213.105 1.474-.632 2.527-2.212 3.053-.737-.526-1.264-1.158-1.79-1.895-1.264-1.58-3.475.632-2.212 2.211 3.265 4.213 8.32 3.581 9.267-2 .948-5.687-2-11.69-6.529-14.954-4.738-3.37-8.424-.421-8.635 4.949-.21 5.898 3.265 11.268 8.425 13.901 1.685 1.158 3.264-1.58 1.474-2.527z" fill="#161616"/><path d="M383.415 174.751c1.158 5.476 3.791 10.32 7.687 14.322 1.159 1.264 2.949-.105 2.633-1.58-.948-5.054-5.897-8.951-5.476-14.216-.948.421-1.79.737-2.738 1.158 3.054 3.581 4.844 7.582 5.686 12.216a24.15 24.15 0 0 0 1.475-2.001c-3.265 0-5.16-3.054-6.635-5.476-1.053-1.685-3.791-.105-2.738 1.58 2.107 3.475 4.845 7.055 9.373 7.055 1.158 0 1.685-1.053 1.474-2.001-.842-5.16-3.159-9.688-6.424-13.584-.947-1.159-2.632-.106-2.738 1.158-.421 5.792 4.634 9.583 5.582 15.059.842-.527 1.79-1.053 2.632-1.58-3.58-3.685-5.792-8.003-6.95-12.952-.211-1.896-3.264-1.053-2.843.842zM292.324 164.641c2.633-10.109 15.48-12.426 21.588-3.896 1.158 1.685 3.896.105 2.738-1.579-7.582-10.637-23.905-8.214-27.275 4.633-.632 2.001 2.422 2.738 2.949.842zM370.567 150.425c6.424-14.006 23.378-7.161 30.539 2.106 1.264 1.58 4.002 0 2.738-1.579-4.528-6.003-10.846-11.058-18.639-11.69-7.161-.631-14.322 2.949-17.376 9.583-.842 1.791 1.896 3.37 2.738 1.58zM333.394 255.416c-6.635-12.215 8.951-11.057 16.638-11.794a56.011 56.011 0 0 0 23.063-7.372c7.582-4.317 12.426-11.057 19.06-16.322 2.844-2.317 7.056-4.95 10.952-2.843 3.265 1.79 4.528 6.423 4.844 9.688.527 4.949-.737 10.004-2.527 14.638-5.055 13.584-14.532 24.852-28.538 29.486-15.902 5.16-34.436-1.159-43.492-15.481-1.053-1.684-3.791-.105-2.738 1.58 7.477 11.9 21.588 19.377 35.594 18.85 14.321-.421 28.011-8.74 35.909-20.43 6.635-9.898 15.481-31.065 3.897-40.332-6.424-5.16-14.217.632-18.955 5.265-7.583 7.477-14.743 14.006-25.064 17.481-5.581 1.896-11.268 2.633-17.165 2.843-3.896.106-7.898.106-11.478 2.001-6.213 3.37-5.792 8.846-2.738 14.322.948 1.79 3.686.211 2.738-1.58z" fill="#161616"/><path d="M331.604 255.627c29.064 1.896 56.865-12.321 71.714-37.489 1.053-1.791-1.685-3.37-2.738-1.58-14.322 24.326-40.965 37.805-68.976 35.91-2.001-.105-2.001 3.054 0 3.159zM452.18 245.307c-7.266 22.957-23.273 42.123-44.439 53.707-1.791.947-.211 3.685 1.579 2.738 21.799-12.005 38.332-31.803 45.809-55.603.632-1.895-2.317-2.738-2.949-.842zM455.34 158.639c1.158-8.424 9.899-12.426 17.691-9.794 7.793 2.738 12.111 10.321 13.164 18.113 1.158 7.898-.527 16.323-4.529 23.273-4.106 7.056-13.374 13.585-20.956 6.845-1.474-1.369-3.791.843-2.211 2.212 7.266 6.529 17.376 3.475 23.167-3.475 6.74-8.109 9.373-20.009 7.583-30.329-1.685-9.688-8.109-18.745-18.324-20.535-8.53-1.474-17.376 3.896-18.639 12.742-.211 2.106 2.843 2.949 3.054.948z" fill="#161616"/><path d="M431.961 147.476c.527 2.844.948 8.636 5.16 11.163 4.423 2.633 10.742.316 15.481-2.001.21-.526 3.896-9.899 13.163-11.478 7.477-1.264 13.058 3.37 14.848 4.739 6.424 5.265 7.688 12.636 8.425 16.849 1.474 8.214-.632 14.637-1.685 18.323-.948 3.159-2.212 6.95-5.581 10.847-1.369 1.579-3.686 4.212-7.372 5.792-6.424 2.632-12.847 0-14.743-.843-1.895 1.58-4.423 3.897-6.529 7.266l-.421.632c-3.265 5.476-.421 17.587 0 24.326.21 4.002-.211 9.899-3.686 17.271 3.896 1.79 16.639 6.95 32.013 2.948 4.423-1.158 15.797-4.212 24.011-15.164 9.161-12.216 7.792-25.59 7.371-28.749 5.265-4.739 7.898-9.478 9.162-12.426.842-1.896 6.529-15.27.842-21.167-2.317-2.317-4.317-1.369-6.213-3.37-2.527-2.527-3.264-8.635 4.423-24.115 1.685 0 2.633-.527 3.264-.948 2.949-2.422 1.791-9.688-3.053-18.007 6.529-3.581 13.058-7.161 19.587-10.636-5.055-.422-12.321-1.685-18.956-6.319-9.793-6.74-11.057-15.69-17.586-24.747-5.055-7.056-14.111-15.586-32.119-21.272a106.16 106.16 0 0 0 15.902-13.48c4.423-4.633 14.111-15.796 12.11-18.218-1.369-1.58-7.055 1.79-14.111 4.423-13.058 4.74-24.01 4.002-40.965 2.738-22.851-1.79-25.273-5.792-44.334-8.108-12.532-1.58-36.226-4.213-62.552 5.054-24.748 8.74-39.701 23.8-46.23 30.434-6.003 6.108-20.956 22.746-28.96 48.02-3.896 12.216-7.582 24.853-1.053 36.226 4.107 7.056 10.531 10.847 14.848 12.847-.421-6.95-.316-20.429 7.898-33.171 12.216-18.85 34.015-23.168 50.021-26.327 12.743-2.528 41.807-8.214 67.608 7.793 9.688 6.002 27.274 16.849 30.012 32.855z" fill="#5222D0"/><path d="M331.814 255.1c1.369 2.633 4.107 6.74 8.741 10.531 1.053.843 6.002 4.739 13.584 6.845 11.795 3.159 22.115-.105 26.116-1.685 12.216-4.844 18.324-13.69 20.851-17.586 2.738-4.107 7.898-11.9 7.582-22.746-.21-6.529-2.316-11.584-3.791-14.533-1.053 1.053-2.527 2.633-4.317 4.528-6.108 6.529-10.004 11.479-11.268 13.059-7.688 9.161-19.271 14.321-22.957 15.901-13.901 6.108-26.853 6.318-34.541 5.686z" fill="#000"/><path d="M290.112 74.077c-5.16 5.16-8.424 10.531-10.32 13.796-6.318 10.636-8.53 19.903-10.109 26.537-1.896 8.319-3.897 20.851-2.633 36.331.316 3.686 2.527 6.634 5.581 7.582 2.107.632 3.897.106 4.739-.21.632-4.002 2.212-10.005 6.108-16.323 6.845-11.268 16.744-16.533 22.536-19.482 11.794-6.002 22.22-6.95 29.17-7.582 15.901-1.264 27.801 2.106 30.434 2.843 11.268 3.265 19.482 8.53 24.958 12.005 10.214 6.424 11.689 9.689 21.166 13.796 10.531 4.633 16.955 4.317 19.061 4.107 3.264-.211 9.267-.738 14.848-5.161 5.055-4.001 6.95-9.161 7.688-11.478 9.899 4.318 17.165 8.846 22.009 12.216 11.478 7.898 17.902 15.164 33.382 23.904 2.633 1.475 4.95 2.633 6.319 3.37 1.685-6.95 3.37-13.9 5.054-20.745a774.843 774.843 0 0 0-9.582-6.74c-14.849-10.32-24.958-17.27-38.122-24.115-3.791-2.001-9.267-4.634-16.217-7.582 1.474-5.687 3.37-16.112-.316-27.802-1.369-4.422-3.58-11.162-9.794-16.638a28.918 28.918 0 0 0-10.109-5.687c-26.432-9.477-54.549-9.899-54.549-9.899-15.375-.21-36.015-.316-60.447 6.74-15.058 4.318-23.904 9.267-30.855 16.217z" fill="#fff"/><path d="M278.845 157.902c7.371-40.228 62.973-50.653 95.092-36.121 8.846 4.002 17.165 9.057 25.379 14.112 7.161 4.423 14.533 8.951 22.746 10.952 12.111 2.948 27.17-.843 31.487-13.69.632-1.896-2.422-2.738-3.054-.843-2.948 8.846-12.636 12.848-21.377 12.532-9.794-.421-18.534-5.792-26.643-10.636-15.269-9.267-31.065-19.587-49.389-21.378-30.75-2.948-70.872 10.005-77.19 44.335-.527 1.79 2.527 2.738 2.949.737z" fill="#161616"/><path d="M275.685 155.164a398.802 398.802 0 0 0-4.844-.948c-.316-.842-.737-1.685-1.053-2.527-.421-1.053-.632-2.212-.842-3.37-.422-2.422-.527-4.95-.632-7.477-.105-4.844.105-9.793.526-14.638.738-10.425 2.633-20.85 7.161-30.328 8.32-17.586 25.169-29.38 43.176-35.7 19.903-6.95 41.597-8.424 62.553-7.897 20.113.526 42.755 2.316 60.236 13.163 11.583 7.161 12.952 20.85 13.268 33.488.316 12.215-1.579 24.22-5.476 35.699-.632 1.895 2.422 2.738 3.054.842 4.002-11.794 6.003-24.115 5.582-36.541-.316-10.11-.948-23.378-8.32-31.066-7.477-7.898-19.587-11.794-29.907-14.216-12.216-2.844-24.958-4.002-37.489-4.423-44.335-1.475-102.359 8.74-114.364 59.288-2.949 12.11-4.318 26.116-2.738 38.542.526 3.897 1.579 9.057 4.949 11.584 2.738 2.001 6.529 1.369 7.898-1.79.843-1.896-1.895-3.475-2.738-1.685z" fill="#161616"/><path d="M271.368 152.531c7.266-26.853 30.855-47.177 57.919-52.022 14.848-2.632 30.328-.842 44.334 4.634 14.533 5.581 25.063 15.27 36.436 25.59 10.215 9.372 24.01 17.481 37.911 11.057 1.79-.843.211-3.581-1.58-2.738-17.481 8.109-32.118-9.056-43.491-19.482-10.321-9.372-22.747-16.323-36.226-20.114-26.327-7.371-54.655-1.895-75.4 16.112-10.952 9.583-19.061 22.115-22.852 36.121-.632 2.001 2.422 2.843 2.949.842zM452.496 130.627c21.167 12.848 41.807 26.538 62.026 40.754 1.685 1.159 3.265-1.579 1.58-2.738-20.219-14.322-40.859-27.906-62.026-40.754-1.685-1.053-3.265 1.685-1.58 2.738zM456.393 111.04c21.482 12.005 42.333 25.169 62.342 39.49 1.685 1.159 3.264-1.579 1.579-2.738-20.113-14.321-40.859-27.485-62.342-39.49-1.79-1.053-3.369 1.685-1.579 2.738z" fill="#161616"/><path d="M518.103 148.53c-2.212 6.739-3.686 13.479-4.529 20.534-.21 2.001 2.949 2.001 3.16 0a90.368 90.368 0 0 1 4.422-19.692c.632-1.896-2.422-2.738-3.053-.842zM326.97 101.036c17.06-16.323 34.225-32.435 51.6-48.547 1.475-1.369-.737-3.58-2.211-2.211-17.27 16.006-34.541 32.224-51.601 48.547-1.474 1.368.738 3.58 2.212 2.211zM369.725 102.405c15.375-15.27 30.749-30.54 46.124-45.914 1.475-1.474-.842-3.686-2.211-2.212-15.375 15.27-30.75 30.54-46.125 45.915-1.474 1.474.737 3.685 2.212 2.211z" fill="#161616"/><path opacity=".15" d="M301.17 124.098c-.527-4.212-1.053-8.319-1.58-12.531 4.95-3.37 13.164-8.214 24.01-10.952 23.273-6.003 42.86 1.369 51.811 4.739 6.74 2.527 14.743 5.476 23.063 12.531 6.423 5.476 6.318 7.793 14.111 14.111 7.161 5.897 14.111 11.373 23.062 10.952 5.371-.21 9.583-2.527 12.005-4.212 2.317-3.265 4.528-6.634 6.845-9.899 2.422.316 17.586 2.633 24.537 15.164 1.053 1.791.737 2.528 3.159 9.373 4.318 12.321 5.476 12.637 6.318 16.744.211.947 2.422 14.321-6.845 23.062-7.161 6.845-16.744 6.424-18.85 6.318-3.054 8.425-3.58 15.691-3.685 20.43 0 7.266-.106 16.112 5.791 24.01 2.107 2.843 6.845 9.267 15.165 9.899 10.004.737 16.638-7.582 17.27-8.319-13.9 2.632-27.906 5.265-41.807 7.792-.105 11.163 1.58 19.798 3.159 25.59 3.791 14.322 9.267 20.535 8.846 32.435-.21 7.371-2.738 13.374-4.739 17.27-6.423-18.008-12.952-35.91-19.376-53.917-6.95 5.37-13.901 10.846-20.956 16.217 2.738-5.897 5.581-11.9 8.319-17.797a166.548 166.548 0 0 0 4.212-39.174c-.21-14.849-4.212-29.592-12.005-59.078-4.739-17.691-8.003-27.169-16.744-35.067-3.054-2.738-6.529-4.739-13.584-8.846-15.48-8.951-23.168-13.479-32.435-15.691-19.271-4.528-36.331.632-44.44 3.16-6.213 1.79-11.162 3.896-14.637 5.686z" fill="#606060"/><path opacity=".13" d="M337.817 171.592c-2.317 10.109-4.318 21.272-5.792 33.487-.737 6.74-1.264 13.164-1.58 19.377l13.585 3.159c-2.106-18.639-4.107-37.279-6.213-56.023z" fill="#606060"/><path opacity=".09" d="M449.864 186.124a246.946 246.946 0 0 1-5.476 23.378c-10.742 37.174-28.644 65.923-44.967 86.668 2.107-.947 36.647-17.375 47.705-42.228 2.948-6.529 5.37-12.005 5.476-19.692.21-9.899-3.476-13.69-.948-21.062 2.527-7.055 7.477-8.003 7.793-13.269.316-5.581-4.95-10.425-9.583-13.795z" fill="#606060"/><path opacity=".1" d="M309.068 113.146c-.632 4.528 4.528 8.635 7.161 10.742 14.743 11.899 28.117 1.369 54.128 6.634 22.009 4.528 26.221 14.954 48.967 15.27 8.004.105 14.533-1.054 18.85-2.001-3.053-.632-7.687-2.001-12.742-4.634-8.74-4.528-13.9-10.215-15.796-12.215-10.215-10.847-28.538-21.904-41.807-26.011-25.8-8.109-57.287 2-58.761 12.215z" fill="#606060"/></svg>