<svg width="115" height="38" fill="none" xmlns="http://www.w3.org/2000/svg"><rect width="115" height="38" rx="19" fill="#5222D0"/><circle cx="94" cy="15" r="4" stroke="#fff" stroke-width="2"/><path d="m89.602 23.25-1.667-7.5h12.13l-1.667 7.5h-8.796z" fill="#fff" stroke="#fff" stroke-width="1.5"/><path d="M19.536 24v-3.471c.299 0 .585 0 .897-.052L22.435 24h2.587v-.364l-2.47-4.004c1.807-1.157 1.755-2.873 1.755-4.732h-2.392c0 1.703.117 3.445-2.21 3.445h-.169V14.9H17.17V24h2.366zm15.6-4.537c0-6.292-9.334-6.292-9.334 0 0 6.305 9.334 6.305 9.334 0zm-6.942 0c0-3.276 4.563-3.276 4.563 0a2.29 2.29 0 0 1-4.563 0zM39.212 24v-2.327h1.677c4.355 0 4.355-6.76 0-6.773h-4.004V24h2.328zm1.664-4.42h-1.663v-2.6c.532 0 1.117-.013 1.663 0 1.352.013 1.275 2.6 0 2.6zm6.765-2.392c0-.338.299-.533.806-.533 1.092 0 1.118 1.586-.026 1.586h-.611v1.898h.637c1.56 0 1.56 2.067 0 2.067-.676 0-1.144-.455-1.144-1.17h-2.041c0 2.041 1.209 3.133 3.185 3.133 2.34 0 3.51-1.248 3.51-2.86 0-1.027-.39-1.755-1.313-2.249.533-.403.793-1.092.793-1.69 0-1.326-1.001-2.639-2.99-2.639-1.586 0-2.951.78-2.873 2.457h2.067zm11.474 2.34V24h2.405v-9.139h-.845l-4.602 4.498V14.9h-2.379v9.113h.832l4.59-4.485zM71.43 14.9H69.05v3.302h-2.808V14.9h-2.379V24h2.38v-3.653h2.807V24h2.38v-9.1zm8.109 9.1h2.275v-.338l-4.108-8.879h-1.001l-4.095 8.879V24h2.275l.533-1.144h3.588L79.538 24zm-1.287-3.133h-2.08l1.027-2.392 1.053 2.392z" fill="#fff"/></svg>