<svg width="270" height="84" fill="none" xmlns="http://www.w3.org/2000/svg"><path d="M0 42C0 18.804 18.804 0 42 0h186c23.196 0 42 18.804 42 42s-18.804 42-42 42H42C18.804 84 0 65.196 0 42z" fill="#5222D0"/><path fill-rule="evenodd" clip-rule="evenodd" d="M198.437 27.563a2 2 0 0 0-1.999 2v24.743a2 2 0 0 0 2 2h37.724a2 2 0 0 0 2-2v-14.69h-41.724v-5.563h41.724v-4.49a2 2 0 0 0-2-2h-37.725z" fill="#fff"/><path d="M42.52 54v-9.345c.805 0 1.575 0 2.415-.14L50.325 54h6.965v-.98l-6.65-10.78c4.865-3.115 4.725-7.735 4.725-12.74h-6.44c0 4.585.315 9.275-5.95 9.275h-.455V29.5h-6.37V54h6.37zm19.88 0h6.755l11.62-23.555V29.5h-6.79l-4.2 9.03h-.175l-4.62-9.03h-7v.945l8.26 14.98-3.85 7.91V54zm42.177-24.5h-20.37V54h6.405V35.275h7.56V54h6.405V29.5zm20.885 12.46V54h6.475V29.395h-2.275l-12.39 12.11V29.5h-6.405v24.535h2.24l12.355-12.075zm16.353-6.86V54h6.195V35.1h5.985v-5.6h-18.2v5.6h6.02zm22.313-5.6h-6.265V54h10.78c11.725-.035 11.725-17.185 0-17.185h-4.515V29.5zm4.48 12.95c3.43 0 3.64 5.915 0 5.95-1.47.035-3.045 0-4.48 0v-5.95h4.48z" fill="#fff"/></svg>