<svg width="135" height="38" fill="none" xmlns="http://www.w3.org/2000/svg"><rect width="135" height="38" rx="19" fill="#5222D0"/><path d="M24.736 14.9H17.17V24h2.379v-6.955h2.808V24h2.379v-9.1zm11.098 4.563c0-6.292-9.334-6.292-9.334 0 0 6.305 9.334 6.305 9.334 0zm-6.942 0c0-3.276 4.563-3.276 4.563 0a2.29 2.29 0 0 1-4.563 0zm9.485 4.563h5.382v1.001h1.91v-3.042h-.948l-3.224-7.202h-1.001l-3.12 7.202h-.923v3.042h1.924v-1.001zm2.613-5.356 1.313 3.289h-2.574l1.26-3.289zm13.428-3.77h-7.566V24h2.379v-6.955h2.808V24h2.379v-9.1zm7.757 4.628V24h2.405v-9.139h-.845l-4.602 4.498V14.9h-2.379v9.113h.832l4.589-4.485zm4.189-.078c.013 3.094 2.353 4.654 4.667 4.641 1.937 0 3.978-1.014 4.316-3.588h-2.288c-.247.975-1.04 1.469-2.028 1.469-1.378-.013-2.262-1.183-2.262-2.522 0-1.508.897-2.535 2.262-2.535.975 0 1.664.416 1.989 1.339h2.288c-.351-2.431-2.392-3.458-4.277-3.458-2.314 0-4.654 1.56-4.667 4.654zM82.914 24h2.276v-.338l-4.108-8.879H80.08l-4.095 8.879V24h2.275l.533-1.144h3.588L82.915 24zm-1.286-3.133h-2.08l1.027-2.392 1.053 2.392zm5.562-3.887V24h2.301v-7.02h2.223V14.9h-6.76v2.08h2.236zm8.288-2.08h-2.327V24h4.004c4.355-.013 4.355-6.383 0-6.383h-1.677V14.9zm1.664 4.81c1.274 0 1.352 2.197 0 2.21-.546.013-1.13 0-1.664 0v-2.21h1.664zm4.49-.26c.013 3.094 2.353 4.654 4.667 4.641 1.937 0 3.978-1.014 4.316-3.588h-2.288c-.247.975-1.04 1.469-2.028 1.469-1.378-.013-2.262-1.183-2.262-2.522 0-1.508.897-2.535 2.262-2.535.975 0 1.664.416 1.989 1.339h2.288c-.351-2.431-2.392-3.458-4.277-3.458-2.314 0-4.654 1.56-4.667 4.654zm9.868 4.212V24h2.6l1.56-2.678h1.209V24h2.327v-9.1h-3.991c-3.575.013-4.225 4.316-1.924 5.876l-1.781 2.886zm3.705-4.433c-1.261 0-1.326-2.236 0-2.249.546-.013 1.118 0 1.664 0v2.249h-1.664z" fill="#fff"/></svg>