<svg width="201" height="40" fill="none" xmlns="http://www.w3.org/2000/svg"><circle cx="26" cy="26" r="14" fill="#EC615B"/><circle cx="14" cy="14" r="14" fill="#5222D0" style="mix-blend-mode:multiply"/><path d="M64.15 14.875c0-3.025-2.425-5.375-5.45-5.375h-7.475V27h8.2c3.575 0 5.425-2.475 5.45-5.525 0-1.55-.675-2.85-2.1-3.575.85-.7 1.375-1.975 1.375-3.025zM59.1 20.05c1.8 0 1.825 2.975.025 2.975H55.55V20.05h3.55zm-.75-6.55c1.8 0 1.8 2.825.025 2.825H55.55V13.5h2.8zM78.814 18.4V27h4.625V9.425h-1.625l-8.85 8.65V9.5h-4.575v17.525h1.6l8.825-8.625zM99.044 27h4.375v-.65l-7.9-17.075h-1.925L85.72 26.35V27h4.375l1.025-2.2h6.9l1.025 2.2zm-2.475-6.025h-4l1.975-4.6 2.025 4.6zM110.192 27v-4.475h3.225c8.375 0 8.375-13 0-13.025h-7.7V27h4.475zm3.2-8.5h-3.2v-5c1.025 0 2.15-.025 3.2 0 2.6.025 2.45 5 0 5zM124.151 27h4.825l8.3-16.825V9.5h-4.85l-3 6.45h-.125l-3.3-6.45h-5v.675l5.9 10.7-2.75 5.65V27zM139.727 27h22.175V9.5h-4.575v13.375h-4.225V9.5h-4.575v13.375h-4.225V9.5h-4.575V27zM170.937 27v-6.675c.575 0 1.125 0 1.725-.1l3.85 6.775h4.975v-.7l-4.75-7.7c3.475-2.225 3.375-5.525 3.375-9.1h-4.6c0 3.275.225 6.625-4.25 6.625h-.325V9.5h-4.55V27h4.55zM196.237 27h4.375v-.65l-7.9-17.075h-1.925l-7.875 17.075V27h4.375l1.025-2.2h6.9l1.025 2.2zm-2.475-6.025h-4l1.975-4.6 2.025 4.6z" fill="#000"/></svg>